<?xml version="1.0" encoding="utf-8"?>
<!DOCTYPE svg PUBLIC "-//W3C//DTD SVG 1.1//EN" "http://www.w3.org/Graphics/SVG/1.1/DTD/svg11.dtd">
<svg version="1.1" xmlns="http://www.w3.org/2000/svg" xmlns:xlink="http://www.w3.org/1999/xlink">
  <symbol id="logo"
      role="img" aria-labelledby="title desc"
      preserveAspectRatio="xMidYMid meet"
      viewBox="0 0 150.1 210.6"
     >
    <title>Big Sweater</title>
    <desc>Big Sweater logo</desc>
    <g class="logo-img">
      <polygon class="masthead-logo-diamond st0" points="75.2,193.3 134.9,96.9 75.2,0 15.6,96.9" fill="currentColor" />
      <g class="masthead-logo-text" fill="#ffffff">
        <path class="st0" d="M11.4,200.9v-0.1c1.5-0.5,2.2-2.1,2.2-3.7c0-4.2-3.3-5.1-6.5-5.1H0v18.4h8.2c2.9,0,6.1-1.3,6.1-5.1
          C14.4,203,13.2,201.6,11.4,200.9z M5.6,196.4H6c0.9,0,2-0.1,2,1.3c0,1.3-1,1.4-1.9,1.4H5.5L5.6,196.4L5.6,196.4L5.6,196.4z
           M6.3,205.9H5.6v-3.1h0.6c1,0,2.5,0,2.5,1.5C8.7,205.9,7.3,205.9,6.3,205.9z"/>
        <rect class="st0" x="15.3" y="191.9" width="6.1" height="18.4"/>
        <path class="st0" d="M30.8,203.8h2.7c-0.3,1.1-1.5,1.6-2.5,1.6c-2,0-3.1-1.9-3.1-3.9c0-2.2,1.2-4.3,3.4-4.3c1,0,1.8,0.5,2.3,1.4l5.7-2.3
          c-1.3-3.1-5.3-4.7-8.2-4.7c-5.2,0-9.2,3.6-9.2,9.6c0,5.9,4.1,9.4,9.2,9.4c2.6,0,5.3-1.1,7.1-3.3c2-2.3,2-4.9,2-7.9h-9.4
          C30.8,199.5,30.8,203.8,30.8,203.8z"/>
        <path class="st0" d="M99.4,191.9l-4.2,13.4h-5.8v-1.8h4.7v-4.8h-4.7v-1.8h5.1v-5H84.1h-0.9h-5.5l-1.7,7.7c-0.2,1.1-0.3,2.2-0.4,3.2h-0.1
          l-2.3-11h-4.6l-1.8,7.6c-0.3,1.1-0.4,2.3-0.5,3.4h-0.1l-2.1-11h-6.3c-0.8-0.2-2-0.3-4-0.3c-3.6,0-7.2,2.4-7.2,6.8
          c0,2.9,2,4.4,4.4,4.9l1.2,0.2c0.6,0.1,1.3,0.2,1.3,1s-1,1.1-1.5,1.1c-1.4,0-2.7-0.8-3.8-1.7l-0.3-0.3l-1.9,5.2
          c1.9,1,4.3,1.7,6.4,1.7c3.6,0,7.2-2.2,7.2-6.6c0-3.1-1.9-4.6-4.4-5.3l-1.4-0.3c-0.5-0.1-1.2-0.2-1.2-0.9c0-0.8,0.8-1,1.3-1
          c1.3,0,2.5,0.6,3.5,1.4l1.2-3.4l5,15.7h5.2l1.7-7.2c0.2-0.9,0.2-1.8,0.3-2.8H71l1.9,10h5.3l5-15.7V210h10.3h1.1h5.3l0.5-2.3h4.6
          l0.6,2.3h6.4l-5.9-18.4L99.4,191.9L99.4,191.9z M101.6,203.6l1.1-5.6h0.2c0.1,0.8,0.2,1.6,0.4,2.4l0.7,3.2H101.6z"/>
        <polygon class="st0" points="128.1,203.5 132.8,203.5 132.8,198.7 128.1,198.7 128.1,196.9 133.2,196.9 133.2,191.9 122,191.9 109.2,191.9
          109.2,197.9 112.6,197.7 112.6,210.3 118.6,210.3 118.6,197.7 122,197.9 122,210.3 133.4,210.3 133.4,205.3 128.1,205.3       "/>
        <path class="st0" d="M146.4,204.3c-0.3-0.5-0.7-0.8-1-1.1v-0.1c2.3-0.8,3.2-2,3.2-4.8c0-4.6-3.2-6.4-6.9-6.4h-7.3v18.4h5.9v-5.9h0.1l2.7,5.9
          h7L146.4,204.3z M140.7,200.1h-0.4V197h0.5c1,0,1.9,0.2,1.9,1.6C142.7,199.9,141.7,200.1,140.7,200.1z"/>
      </g>
      <path fill="#ffffff" class="st0 masthead-logo-rocket" d="M51.7,136.3l11.7-19l11.7,19l11.7-19l11.7,19l11.7-19l-11.7-19l11.7-19L75,22.4L39.8,79.3l11.7,19l-11.7,19L51.7,136.3z
         M75.2,60.4l11.7,19l-11.7,19l-11.7-19L75.2,60.4z"/>
      <polygon fill="#ffffff" class="st0 masthead-logo-thrusters" points="75.2,174.2 86.9,155.3 75.2,136.3 63.5,155.3    "/>
    </g>
  </symbol>
</svg>
