<?xml version="1.0" standalone="no"?>
<!DOCTYPE svg PUBLIC "-//W3C//DTD SVG 20010904//EN"
 "http://www.w3.org/TR/2001/REC-SVG-20010904/DTD/svg10.dtd">
<svg version="1.0" xmlns="http://www.w3.org/2000/svg"
 width="520.000000pt" height="520.000000pt" viewBox="0 0 520.000000 520.000000"
 preserveAspectRatio="xMidYMid meet">
<metadata>
Created by potrace 1.11, written by Peter Selinger 2001-2013
</metadata>
<g transform="translate(0.000000,520.000000) scale(0.100000,-0.100000)"
fill="#000000" stroke="none">
<path d="M0 2600 l0 -2600 2600 0 2600 0 0 2600 0 2600 -2600 0 -2600 0 0
-2600z m2344 748 c138 -224 254 -404 257 -400 4 4 114 180 244 392 131 212
244 393 253 403 14 16 51 17 510 17 445 0 494 -2 488 -16 -3 -8 -114 -191
-246 -405 -132 -215 -240 -394 -240 -400 0 -5 113 -192 250 -415 l250 -405
-247 -402 c-135 -221 -249 -406 -253 -410 -4 -5 -119 174 -256 397 -137 223
-252 405 -255 406 -3 0 -118 -182 -255 -405 -137 -222 -252 -401 -256 -397 -3
4 -113 180 -243 392 -131 212 -243 391 -250 398 -10 11 -59 -63 -261 -392
-190 -308 -252 -402 -260 -393 -10 10 -430 679 -487 775 l-19 32 252 410 252
410 -246 399 c-135 220 -246 404 -246 410 0 8 145 10 506 9 l507 -3 251 -407z"/>
</g>
</svg>
